ffmpeg version 4.2.2 Copyright (c) 2000-2019 the FFmpeg developers
  built with gcc 9.2.1 (GCC) 20200122
  configuration: --enable-gpl --enable-version3 --enable-sdl2 --enable-fontconfig --enable-gnutls --enable-iconv --enable-libass --enable-libdav1d --enable-libbluray --enable-libfreetype --enable-libmp3lame --enable-libopencore-amrnb --enable-libopencore-amrwb --enable-libopenjpeg --enable-libopus --enable-libshine --enable-libsnappy --enable-libsoxr --enable-libtheora --enable-libtwolame --enable-libvpx --enable-libwavpack --enable-libwebp --enable-libx264 --enable-libx265 --enable-libxml2 --enable-libzimg --enable-lzma --enable-zlib --enable-gmp --enable-libvidstab --enable-libvorbis --enable-libvo-amrwbenc --enable-libmysofa --enable-libspeex --enable-libxvid --enable-libaom --enable-libmfx --enable-amf --enable-ffnvcodec --enable-cuvid --enable-d3d11va --enable-nvenc --enable-nvdec --enable-dxva2 --enable-avisynth --enable-libopenmpt
  libavutil      56. 31.100 / 56. 31.100
  libavcodec     58. 54.100 / 58. 54.100
  libavformat    58. 29.100 / 58. 29.100
  libavdevice    58.  8.100 / 58.  8.100
  libavfilter     7. 57.100 /  7. 57.100
  libswscale      5.  5.100 /  5.  5.100
  libswresample   3.  5.100 /  3.  5.100
  libpostproc    55.  5.100 / 55.  5.100
Splitting the commandline.
Reading option '-v' ... matched as option 'v' (set logging level) with argument 'debug'.
Reading option '-nostdin' ... matched as option 'stdin' (enable or disable interaction on standard input) with argument 0.
Reading option '-progress' ... matched as option 'progress' (write program-readable progress information) with argument 'C:/Users/Flynn/AppData/Local/Temp/KritaFFmpegProgress.BNtnyp'.
Reading option '-r' ... matched as option 'r' (set frame rate (Hz value, fraction or abbreviation)) with argument '2'.
Reading option '-start_number' ... matched as AVOption 'start_number' with argument '1'.
Reading option '-i' ... matched as input url with argument 'C:/Users/Flynn/Documents/Unity/DigiPenGameJam1/Assets/Textures/Player/Animate/PlayerIdle%04d.png'.
Reading option '-vf' ... matched as option 'vf' (set video filters) with argument 'palettegen'.
Reading option '-y' ... matched as option 'y' (overwrite output files) with argument '1'.
Reading option 'C:/Users/Flynn/Documents/Unity/DigiPenGameJam1/Assets/Textures/Player/Animate/palette.png' ... matched as output url.
Finished splitting the commandline.
Parsing a group of options: global .
Applying option v (set logging level) with argument debug.
Applying option nostdin (enable or disable interaction on standard input) with argument 0.
Applying option progress (write program-readable progress information) with argument C:/Users/Flynn/AppData/Local/Temp/KritaFFmpegProgress.BNtnyp.
[file @ 000001c8dd01d9c0] Setting default whitelist 'file,crypto'
Applying option y (overwrite output files) with argument 1.
Successfully parsed a group of options.
Parsing a group of options: input url C:/Users/Flynn/Documents/Unity/DigiPenGameJam1/Assets/Textures/Player/Animate/PlayerIdle%04d.png.
Applying option r (set frame rate (Hz value, fraction or abbreviation)) with argument 2.
Successfully parsed a group of options.
Opening an input file: C:/Users/Flynn/Documents/Unity/DigiPenGameJam1/Assets/Textures/Player/Animate/PlayerIdle%04d.png.
[image2 @ 000001c8dd05e580] Opening 'C:/Users/Flynn/Documents/Unity/DigiPenGameJam1/Assets/Textures/Player/Animate/PlayerIdle0001.png' for reading
[file @ 000001c8dd061d00] Setting default whitelist 'file,crypto'
[AVIOContext @ 000001c8dd069f00] Statistics: 85200 bytes read, 0 seeks
[image2 @ 000001c8dd05e580] Opening 'C:/Users/Flynn/Documents/Unity/DigiPenGameJam1/Assets/Textures/Player/Animate/PlayerIdle0002.png' for reading
[file @ 000001c8dd07eec0] Setting default whitelist 'file,crypto'
[AVIOContext @ 000001c8dd061d00] Statistics: 85283 bytes read, 0 seeks
[image2 @ 000001c8dd05e580] Opening 'C:/Users/Flynn/Documents/Unity/DigiPenGameJam1/Assets/Textures/Player/Animate/PlayerIdle0003.png' for reading
[file @ 000001c8dd061d00] Setting default whitelist 'file,crypto'
[AVIOContext @ 000001c8dd061e00] Statistics: 84984 bytes read, 0 seeks
[image2 @ 000001c8dd05e580] Opening 'C:/Users/Flynn/Documents/Unity/DigiPenGameJam1/Assets/Textures/Player/Animate/PlayerIdle0004.png' for reading
[file @ 000001c8dd061d00] Setting default whitelist 'file,crypto'
[AVIOContext @ 000001c8dd062040] Statistics: 84960 bytes read, 0 seeks
[image2 @ 000001c8dd05e580] Opening 'C:/Users/Flynn/Documents/Unity/DigiPenGameJam1/Assets/Textures/Player/Animate/PlayerIdle0005.png' for reading
[file @ 000001c8dd061d00] Setting default whitelist 'file,crypto'
[AVIOContext @ 000001c8dd062200] Statistics: 85200 bytes read, 0 seeks
[image2 @ 000001c8dd05e580] Opening 'C:/Users/Flynn/Documents/Unity/DigiPenGameJam1/Assets/Textures/Player/Animate/PlayerIdle0006.png' for reading
[file @ 000001c8de454e80] Setting default whitelist 'file,crypto'
[AVIOContext @ 000001c8de454f80] Statistics: 85200 bytes read, 0 seeks
[image2 @ 000001c8dd05e580] Opening 'C:/Users/Flynn/Documents/Unity/DigiPenGameJam1/Assets/Textures/Player/Animate/PlayerIdle0007.png' for reading
[file @ 000001c8de454e80] Setting default whitelist 'file,crypto'
[AVIOContext @ 000001c8de469f40] Statistics: 85200 bytes read, 0 seeks
[image2 @ 000001c8dd05e580] Opening 'C:/Users/Flynn/Documents/Unity/DigiPenGameJam1/Assets/Textures/Player/Animate/PlayerIdle0008.png' for reading
[file @ 000001c8de454e80] Setting default whitelist 'file,crypto'
[AVIOContext @ 000001c8de47ee40] Statistics: 85200 bytes read, 0 seeks
Input #0, image2, from 'C:/Users/Flynn/Documents/Unity/DigiPenGameJam1/Assets/Textures/Player/Animate/PlayerIdle%04d.png':
  Duration: 00:00:00.32, start: 0.000000, bitrate: N/A
    Stream #0:0, 8, 1/25: Video: png, 1 reference frame, rgba(pc), 2048x2048 [SAR 3937:3937 DAR 1:1], 0/1, 25 fps, 25 tbr, 25 tbn, 25 tbc
Successfully opened the file.
Parsing a group of options: output url C:/Users/Flynn/Documents/Unity/DigiPenGameJam1/Assets/Textures/Player/Animate/palette.png.
Applying option vf (set video filters) with argument palettegen.
Successfully parsed a group of options.
Opening an output file: C:/Users/Flynn/Documents/Unity/DigiPenGameJam1/Assets/Textures/Player/Animate/palette.png.
Successfully opened the file.
detected 4 logical cores
Stream mapping:
  Stream #0:0 -> #0:0 (png (native) -> png (native))
cur_dts is invalid st:0 (0) [init:0 i_done:0 finish:0] (this is harmless if it occurs once at the start per stream)
    Last message repeated 4 times
[graph 0 input from stream 0:0 @ 000001c8dd062000] Setting 'video_size' to value '2048x2048'
[graph 0 input from stream 0:0 @ 000001c8dd062000] Setting 'pix_fmt' to value '26'
[graph 0 input from stream 0:0 @ 000001c8dd062000] Setting 'time_base' to value '1/2'
[graph 0 input from stream 0:0 @ 000001c8dd062000] Setting 'pixel_aspect' to value '3937/3937'
[graph 0 input from stream 0:0 @ 000001c8dd062000] Setting 'sws_param' to value 'flags=2'
[graph 0 input from stream 0:0 @ 000001c8dd062000] Setting 'frame_rate' to value '2/1'
[graph 0 input from stream 0:0 @ 000001c8dd062000] w:2048 h:2048 pixfmt:rgba tb:1/2 fr:2/1 sar:3937/3937 sws_param:flags=2
[format @ 000001c8dd087140] Setting 'pix_fmts' to value 'rgb24|rgba|rgb48be|rgba64be|pal8|gray|ya8|gray16be|ya16be|monob'
[auto_scaler_0 @ 000001c8dd086e40] Setting 'flags' to value 'bicubic'
[auto_scaler_0 @ 000001c8dd086e40] w:iw h:ih flags:'bicubic' interl:0
[Parsed_palettegen_0 @ 000001c8dd0deec0] auto-inserting filter 'auto_scaler_0' between the filter 'graph 0 input from stream 0:0' and the filter 'Parsed_palettegen_0'
[auto_scaler_1 @ 000001c8de4b8880] Setting 'flags' to value 'bicubic'
[auto_scaler_1 @ 000001c8de4b8880] w:iw h:ih flags:'bicubic' interl:0
[format @ 000001c8dd087140] auto-inserting filter 'auto_scaler_1' between the filter 'Parsed_palettegen_0' and the filter 'format'
[AVFilterGraph @ 000001c8dd089700] query_formats: 4 queried, 1 merged, 2 already done, 0 delayed
[auto_scaler_1 @ 000001c8de4b8880] picking rgba out of 10 ref:bgra alpha:1
[swscaler @ 000001c8de572c40] Forcing full internal H chroma due to input having non subsampled chroma
[auto_scaler_0 @ 000001c8dd086e40] w:2048 h:2048 fmt:rgba sar:3937/3937 -> w:2048 h:2048 fmt:bgra sar:1/1 flags:0x4
[swscaler @ 000001c8de58cd40] Forcing full internal H chroma due to input having non subsampled chroma
[auto_scaler_1 @ 000001c8de4b8880] w:16 h:16 fmt:bgra sar:1/1 -> w:16 h:16 fmt:rgba sar:1/1 flags:0x4
Output #0, image2, to 'C:/Users/Flynn/Documents/Unity/DigiPenGameJam1/Assets/Textures/Player/Animate/palette.png':
  Metadata:
    encoder         : Lavf58.29.100
    Stream #0:0, 0, 1/2: Video: png, 1 reference frame, rgba, 16x16 [SAR 1:1 DAR 1:1], 0/1, q=2-31, 200 kb/s, 2 fps, 2 tbn, 2 tbc
    Metadata:
      encoder         : Lavc58.54.100 png
cur_dts is invalid st:0 (0) [init:1 i_done:0 finish:0] (this is harmless if it occurs once at the start per stream)
    Last message repeated 2 times
frame=    0 fps=0.0 q=0.0 size=N/A time=00:00:00.00 bitrate=N/A speed=   0x    cur_dts is invalid st:0 (0) [init:1 i_done:0 finish:0] (this is harmless if it occurs once at the start per stream)
    Last message repeated 4 times
[Parsed_palettegen_0 @ 000001c8dd0deec0] 244(+1) colors generated out of 244 colors; ratio=1.000000
[Parsed_palettegen_0 @ 000001c8dd0deec0] Dupped color: FF4B012B
[Parsed_palettegen_0 @ 000001c8dd0deec0] Dupped color: FF5D0D45
    Last message repeated 2 times
[Parsed_palettegen_0 @ 000001c8dd0deec0] Dupped color: FF610238
[Parsed_palettegen_0 @ 000001c8dd0deec0] Dupped color: FF6B003D
    Last message repeated 2 times
[Parsed_palettegen_0 @ 000001c8dd0deec0] Dupped color: FF6B0500
    Last message repeated 2 times
[Parsed_palettegen_0 @ 000001c8dd0deec0] Dupped color: FFB41310
    Last message repeated 1 times
[Parsed_palettegen_0 @ 000001c8dd0deec0] Dupped color: FFD10D0C
    Last message repeated 1 times
[Parsed_palettegen_0 @ 000001c8dd0deec0] Dupped color: FFDB1211
    Last message repeated 1 times
[Parsed_palettegen_0 @ 000001c8dd0deec0] Dupped color: FFE41716
[Parsed_palettegen_0 @ 000001c8dd0deec0] Dupped color: FFEF4746
    Last message repeated 7 times
[Parsed_palettegen_0 @ 000001c8dd0deec0] Dupped color: FFF04140
[Parsed_palettegen_0 @ 000001c8dd0deec0] Dupped color: FFF23231
    Last message repeated 4 times
[Parsed_palettegen_0 @ 000001c8dd0deec0] Dupped color: FFF41F1E
    Last message repeated 5 times
cur_dts is invalid st:0 (0) [init:1 i_done:0 finish:0] (this is harmless if it occurs once at the start per stream)
Clipping frame in rate conversion by 0.000008
cur_dts is invalid st:0 (0) [init:1 i_done:0 finish:0] (this is harmless if it occurs once at the start per stream)
[out_0_0 @ 000001c8dd09f300] EOF on sink link out_0_0:default.
No more output streams to write to, finishing.
[image2 @ 000001c8de4949c0] Opening 'C:/Users/Flynn/Documents/Unity/DigiPenGameJam1/Assets/Textures/Player/Animate/palette.png' for writing
[file @ 000001c8de4ba080] Setting default whitelist 'file,crypto'
[AVIOContext @ 000001c8de62f080] Statistics: 0 seeks, 1 writeouts
frame=    1 fps=0.0 q=-0.0 Lsize=N/A time=00:00:00.50 bitrate=N/A speed=0.705x    
[AVIOContext @ 000001c8dd05e400] Statistics: 0 seeks, 2 writeouts
video:1kB audio:0kB subtitle:0kB other streams:0kB global headers:0kB muxing overhead: unknown
Input file #0 (C:/Users/Flynn/Documents/Unity/DigiPenGameJam1/Assets/Textures/Player/Animate/PlayerIdle%04d.png):
  Input stream #0:0 (video): 8 packets read (681227 bytes); 8 frames decoded; 
  Total: 8 packets (681227 bytes) demuxed
Output file #0 (C:/Users/Flynn/Documents/Unity/DigiPenGameJam1/Assets/Textures/Player/Animate/palette.png):
  Output stream #0:0 (video): 1 frames encoded; 1 packets muxed (843 bytes); 
  Total: 1 packets (843 bytes) muxed
8 frames successfully decoded, 0 decoding errors
